<svg width="52" height="52" viewBox="0 0 52 52" fill="none" xmlns="http://www.w3.org/2000/svg">
<path d="M2.0305 16.2119V16.2119C1.79264 13.2747 2.79685 10.3009 4.64377 8.00465C4.75629 7.86476 4.87392 7.72314 4.99757 7.57896C6.17545 6.20546 7.60933 5.05453 9.22321 4.23644C10.8977 3.38762 12.7235 2.81178 15.8565 2.20528V2.20528C21.9276 1.25706 27.348 5.52709 32.07 9.45902L44.7311 20.0018C45.7283 20.8322 46.6098 21.7924 47.3521 22.8569V22.8569C48.4351 24.4102 49.234 26.1541 49.5942 28.0131C49.8467 29.316 50.0183 30.5338 49.9984 31.6223M2.0305 16.2119V16.2119C3.0607 18.6107 4.57678 20.77 6.48313 22.5536L9.73248 25.5938M2.0305 16.2119L2.20943 22.095C2.26658 23.9739 2.77085 25.8122 3.68043 27.4573V27.4573C4.28279 28.5468 5.05342 29.5343 5.96383 30.3834L22.3086 45.6274C23.7118 46.9361 25.3433 47.976 27.122 48.6954V48.6954C29.2462 49.5547 31.5331 49.9377 33.8214 49.8176L35.1004 49.7505C37.5735 49.6206 39.9879 48.9488 42.1726 47.7825L42.971 47.3563C44.7454 46.409 46.2766 45.0641 47.4449 43.4267V43.4267C48.4659 41.9956 49.187 40.3728 49.5649 38.6559L49.6449 38.2923C49.8739 37.2519 49.9903 36.19 49.9922 35.1247L49.9984 31.6223M49.9984 31.6223C49.948 34.3852 48.6641 36.635 44.3393 39.8859C41.2408 41.7109 38.7356 42.5533 36.3003 42.7874C29.6307 43.4287 23.6336 39.0387 18.7865 34.4126V34.4126M33.1057 16.2119L16.65 26.877C14.8061 28.0721 13.7166 30.1402 13.7738 32.3367V32.3367" stroke="#51A0E9" stroke-width="4" stroke-linecap="round"/>
</svg>
